<svg id="レイヤー_1" data-name="レイヤー 1" xmlns="http://www.w3.org/2000/svg" height="35" width="150" viewBox="0 0 103.76 21.51"><defs><style>.cls-1{font-size:20px;stroke:#262e7b;stroke-miterlimit:10;font-family:HGMaruGothicMPRO;}.cls-1,.cls-2{fill:#262e7b;}</style></defs><title>logo</title><text class="cls-1" transform="translate(30.59 17.69) scale(0.87 1)">江戸川区</text><path class="cls-2" d="M7159.73,7191.17a8.09,8.09,0,0,0-5.17,4.65c-.22.5-.41.92-.41,1a4.64,4.64,0,0,0,.85.6l3,1.86,2.11,1.34v-.6c0-1.88,2.26-2.47,3-.78a1.81,1.81,0,0,1-1.25,2.56c-.51.07-.66,0-4.16-2.21l-3.62-2.29-1.73,0-1.75,0,1.62,2.2c1.46,2,1.65,2.29,1.88,3.12a8.44,8.44,0,0,0,6.34,6.31,57.08,57.08,0,0,0,6.58.12l5.76,0-1.05-.65a46.32,46.32,0,0,1-3.9-2.57,3,3,0,0,1,.34-.56,9.58,9.58,0,0,0,1.19-2.81,7.83,7.83,0,0,0,.26-2.62v-1.62l.82,0,.82,0,1.54-3.46c.84-1.9,1.53-3.54,1.53-3.63s-1.43-.16-6.81-.15C7161,7190.9,7160.55,7190.91,7159.73,7191.17Z" transform="translate(-7150.53 -7189.6)"/></svg>
